<?xml version="1.0" standalone="no"?>
<!DOCTYPE svg PUBLIC "-//W3C//DTD SVG 20010904//EN"
 "http://www.w3.org/TR/2001/REC-SVG-20010904/DTD/svg10.dtd">
<svg version="1.0" xmlns="http://www.w3.org/2000/svg"
 width="198.000000pt" height="246.000000pt" viewBox="0 0 198.000000 246.000000"
 preserveAspectRatio="xMidYMid meet">

<g transform="translate(0.000000,246.000000) scale(0.100000,-0.100000)"
fill="#000000" stroke="none">
<path d="M50 1609 c0 -517 3 -778 10 -774 6 3 10 -2 10 -12 0 -31 21 -43 74
-43 56 -1 83 -17 103 -62 9 -20 10 -36 2 -55 -5 -14 -8 -32 -5 -39 3 -7 -4
-22 -15 -35 -10 -12 -19 -28 -19 -34 0 -7 -7 -15 -15 -19 -8 -3 -15 -11 -15
-17 0 -8 5 -7 17 2 15 13 15 12 2 -9 -8 -12 -19 -20 -25 -18 -7 3 -10 -3 -7
-13 3 -11 -2 -21 -11 -24 -9 -4 -16 -11 -16 -18 0 -6 -10 -24 -21 -41 l-22
-30 21 6 c78 25 180 111 221 186 18 33 20 41 8 31 -9 -7 -17 -19 -17 -25 -1
-11 -60 -74 -60 -63 0 4 14 34 32 68 18 33 37 86 44 117 7 32 13 46 13 34 2
-43 26 -17 29 31 2 26 8 47 14 47 5 0 8 -7 5 -15 -4 -8 -1 -17 5 -21 10 -7 10
2 -8 126 -4 29 -3 32 6 17 12 -18 13 -23 25 -97 9 -53 23 -84 81 -169 40 -58
57 -74 35 -33 -16 30 38 24 67 -6 24 -26 25 -26 19 -4 -6 25 20 32 29 7 7 -18
35 -20 32 -3 -5 20 34 21 69 3 36 -20 46 -61 18 -71 -8 -4 -15 -12 -15 -20 0
-8 -7 -14 -16 -14 -8 0 -12 -5 -9 -11 4 -6 14 -8 22 -5 8 3 11 1 8 -4 -8 -13
19 -40 38 -40 8 0 34 -9 58 -20 49 -22 141 -27 185 -9 28 10 28 10 10 -10 -10
-11 -23 -18 -29 -14 -6 4 -7 1 -2 -7 6 -9 -4 -11 -46 -8 -62 6 -209 47 -209
59 0 5 -7 6 -15 3 -8 -4 -15 -2 -15 4 0 5 -8 12 -17 16 -10 3 -25 9 -33 12 -8
3 -6 -2 5 -11 11 -9 31 -25 43 -36 13 -11 32 -22 43 -24 10 -2 24 -7 29 -10
24 -15 108 -28 177 -28 61 1 95 19 123 66 20 32 29 66 10 37 -16 -24 -13 23 6
88 20 76 34 102 53 102 13 0 14 2 2 9 -11 7 -3 12 30 20 24 7 54 16 67 21 34
15 39 13 47 -17 6 -25 8 -26 17 -10 5 10 8 27 5 38 -3 10 -2 19 2 19 17 0 36
-61 55 -177 11 -65 -11 -31 -29 45 -15 61 -20 72 -25 52 -3 -14 0 -37 8 -52 7
-15 16 -58 19 -95 l5 -68 -56 -72 c-33 -43 -56 -83 -56 -97 0 -34 -32 -86 -52
-86 -10 0 -36 7 -58 16 -31 13 -60 15 -128 11 -48 -3 -93 -2 -100 2 -8 5 -29
0 -52 -11 -22 -11 -60 -20 -85 -20 -33 0 -48 -4 -55 -18 -8 -15 -6 -17 10 -13
14 4 20 0 20 -11 0 -19 16 -22 23 -3 2 7 23 12 54 12 28 0 49 4 45 9 -3 5 4 6
16 3 70 -22 69 -22 40 4 l-27 24 41 -2 c30 -1 47 -7 59 -22 17 -21 39 -28 39
-13 0 4 -5 13 -12 20 -8 8 -5 10 13 8 35 -5 69 -17 69 -25 0 -4 57 -5 126 -3
85 3 129 1 137 -7 6 -6 25 -11 42 -11 16 0 50 -11 74 -25 41 -24 50 -25 222
-25 l179 0 0 70 c0 56 -3 70 -15 70 -8 0 -22 18 -31 40 -9 22 -19 40 -23 40
-4 0 -15 26 -26 58 -10 31 -26 68 -35 82 -9 14 -38 70 -64 125 -26 55 -52 108
-57 117 -13 25 -31 149 -35 243 -7 144 -9 157 -28 171 -27 20 -30 136 -4 166
10 12 21 39 24 60 4 21 11 41 15 44 5 3 9 16 9 30 0 13 4 24 8 24 21 0 29 60
17 114 -8 35 -10 58 -4 62 6 3 5 11 -2 20 -9 11 -9 21 -1 39 8 17 8 25 1 25
-6 0 -7 5 -4 10 9 15 25 2 25 -21 0 -10 5 -19 10 -19 6 0 10 10 10 23 1 20 2
21 14 5 14 -19 30 -119 28 -177 0 -19 5 -46 13 -60 9 -19 11 -40 5 -76 -4 -28
-13 -82 -20 -121 -14 -86 -2 -124 52 -170 20 -16 52 -55 73 -86 21 -32 39 -58
41 -58 2 0 4 329 4 730 l0 730 -935 0 -935 0 0 -781z m870 133 c-23 -4 -24 -5
-5 -13 18 -7 17 -8 -7 -8 -15 -1 -30 -5 -33 -11 -10 -17 -75 -12 -75 5 0 10
10 15 34 15 19 0 38 5 41 10 3 6 21 9 38 9 28 -2 29 -2 7 -7z m535 -53 c4 -11
5 -22 3 -24 -11 -10 -45 -13 -58 -5 -12 7 -12 12 4 29 24 27 43 27 51 0z
m-1009 -54 c10 -8 14 -15 7 -15 -6 0 -14 4 -18 10 -3 5 -13 6 -22 3 -11 -4
-14 -3 -9 5 9 16 18 15 42 -3z m37 -67 c4 -13 0 -29 -8 -38 -27 -30 -19 -75
19 -104 19 -14 42 -26 51 -26 12 0 16 -8 13 -32 -2 -28 -8 -34 -31 -36 -37 -4
-55 12 -63 57 -4 20 -13 53 -20 73 -7 21 -9 40 -4 43 4 3 11 23 15 45 7 44 20
52 28 18z m243 -13 c0 -28 8 -43 37 -70 36 -34 48 -39 119 -49 21 -2 47 -14
60 -25 l22 -21 -31 -28 c-35 -33 -87 -57 -102 -48 -5 4 -15 -2 -20 -13 -6 -11
-18 -26 -26 -34 -15 -15 -11 -47 6 -47 5 0 9 -7 9 -15 0 -8 4 -15 9 -15 19 0
-3 -40 -34 -65 -37 -27 -55 -32 -55 -12 0 9 -3 8 -9 -2 -7 -10 -15 -7 -41 15
-52 47 -72 96 -66 162 7 66 16 113 24 127 3 5 5 25 4 45 -3 53 22 114 50 121
40 12 44 10 44 -26z m424 -40 c0 -9 10 -15 25 -15 18 0 25 5 25 20 0 30 44 27
58 -5 7 -16 20 -25 34 -26 22 0 22 -1 3 -9 -16 -7 -17 -9 -3 -9 9 -1 21 -7 25
-15 4 -8 17 -15 28 -17 10 -2 22 -15 25 -29 3 -14 18 -31 33 -40 25 -14 28
-14 49 14 13 16 30 38 40 50 9 11 20 17 24 13 5 -4 2 -12 -6 -17 -13 -8 -13
-10 1 -10 9 0 25 12 35 27 17 27 53 62 64 63 3 0 7 -13 8 -29 2 -21 -4 -34
-20 -45 -18 -13 -19 -16 -5 -16 26 0 21 -46 -13 -118 -30 -64 -83 -137 -105
-146 -21 -8 -24 28 -5 67 14 27 14 34 4 30 -10 -4 -12 0 -8 11 4 10 -2 19 -20
27 -24 11 -30 21 -27 42 0 4 -15 7 -35 7 -34 0 -36 -1 -29 -27 4 -16 7 -28 8
-28 1 -1 19 -13 40 -28 40 -30 47 -47 19 -47 -10 0 -28 -7 -41 -16 -21 -15
-32 -15 -139 0 -161 23 -167 25 -154 38 8 8 22 8 52 -1 47 -14 87 -7 71 13
-12 14 12 30 62 40 33 8 35 24 5 30 -74 15 -112 19 -188 20 -67 2 -85 5 -85
16 0 10 13 16 43 18 29 2 45 9 49 20 4 9 11 20 17 24 20 14 -21 8 -59 -8 -25
-10 -41 -12 -47 -6 -13 13 -2 32 18 32 8 0 14 5 14 10 0 6 13 10 29 10 27 0
30 3 36 50 6 45 9 49 26 40 10 -6 19 -17 19 -25z m-604 -34 c-4 -5 0 -12 6
-14 10 -4 10 -8 -1 -16 -11 -7 -18 -5 -27 7 -14 19 -9 32 12 32 8 0 13 -4 10
-9z m973 0 c10 -6 1 -9 -27 -7 -23 1 -44 5 -48 9 -11 10 59 8 75 -2z m-476
-211 c16 -19 16 -20 -2 -20 -11 0 -22 6 -24 13 -3 7 -6 6 -6 -5 -1 -9 4 -20
10 -24 19 -11 -10 -21 -81 -28 -36 -3 -59 -3 -52 0 9 4 10 10 2 19 -13 15 3
29 43 39 18 4 27 2 27 -6 0 -7 10 -3 22 10 28 27 39 28 61 2z m2 -110 c3 -6
17 -7 30 -4 29 7 46 -2 39 -21 -5 -13 -48 -15 -61 -2 -3 4 -17 7 -31 7 -21 0
-22 2 -12 15 14 17 26 19 35 5z m-110 -44 c17 -12 48 -30 69 -41 l39 -20 -29
-5 -29 -6 30 -11 c17 -6 23 -12 15 -12 -13 -1 -13 -2 0 -11 20 -13 93 -13 144
1 77 21 158 69 116 69 -5 0 -10 -4 -10 -8 0 -5 -11 -14 -25 -20 -33 -15 -42
-15 -27 0 18 18 15 28 -10 28 -36 0 -7 19 38 24 22 3 54 12 70 21 41 21 94 17
94 -7 0 -6 -7 -8 -15 -4 -8 3 -15 2 -15 -2 0 -4 -13 -22 -30 -40 -16 -18 -30
-39 -30 -46 0 -6 -19 -31 -43 -54 -45 -44 -111 -67 -126 -44 -5 8 -17 9 -46 1
-21 -6 -51 -8 -67 -5 -15 3 -28 1 -28 -4 0 -6 5 -10 12 -10 6 0 9 -2 6 -5 -3
-3 -30 3 -59 15 -92 34 -184 154 -134 174 8 3 15 11 15 19 0 18 21 37 34 30 6
-3 25 -15 41 -27z m282 20 c-2 -5 -13 -10 -25 -11 -12 -1 -25 -5 -28 -8 -10
-9 -46 12 -39 23 8 12 96 8 92 -4z m-912 -86 c3 -5 1 -10 -4 -10 -6 0 -11 5
-11 10 0 6 2 10 4 10 3 0 8 -4 11 -10z m951 -188 c2 -76 6 -90 31 -97 31 -7
29 -33 -3 -45 -53 -21 -59 -15 -59 52 -1 35 -4 79 -7 98 -7 42 -4 50 20 44 13
-4 17 -16 18 -52z m34 28 c0 -5 -2 -10 -4 -10 -3 0 -8 5 -11 10 -3 6 -1 10 4
10 6 0 11 -4 11 -10z m45 -82 c8 -21 13 -38 11 -38 -5 0 -40 59 -50 85 -14 37
21 -6 39 -47z m285 -68 c0 -5 -4 -10 -10 -10 -5 0 -10 5 -10 10 0 6 5 10 10
10 6 0 10 -4 10 -10z m-577 -105 c8 -46 47 -88 47 -50 0 8 5 15 10 15 6 0 10
-2 10 -5 0 -16 -31 -76 -47 -92 -18 -18 -19 -18 -50 11 -40 36 -45 88 -12 130
27 35 35 33 42 -9z"/>
<path d="M470 1410 c0 -19 3 -21 12 -12 9 9 9 15 0 24 -9 9 -12 7 -12 -12z"/>
<path d="M1145 1420 c-3 -5 -1 -10 4 -10 6 0 11 5 11 10 0 6 -2 10 -4 10 -3 0
-8 -4 -11 -10z"/>
<path d="M1707 1593 c-3 -5 -2 -15 2 -22 5 -7 11 -9 14 -4 3 5 2 15 -2 22 -5
7 -11 9 -14 4z"/>
<path d="M412 700 c0 -19 2 -27 5 -17 2 9 2 25 0 35 -3 9 -5 1 -5 -18z"/>
<path d="M360 659 c0 -11 5 -17 10 -14 6 3 10 13 10 21 0 8 -4 14 -10 14 -5 0
-10 -9 -10 -21z"/>
<path d="M411 614 c0 -11 3 -14 6 -6 3 7 2 16 -1 19 -3 4 -6 -2 -5 -13z"/>
<path d="M710 535 c0 -5 5 -17 10 -25 5 -8 10 -10 10 -5 0 6 -5 17 -10 25 -5
8 -10 11 -10 5z"/>
<path d="M331 385 c-24 -40 -25 -45 -12 -45 10 0 45 69 38 76 -2 3 -14 -11
-26 -31z"/>
<path d="M720 130 c0 -5 5 -10 11 -10 5 0 7 5 4 10 -3 6 -8 10 -11 10 -2 0 -4
-4 -4 -10z"/>
<path d="M50 115 c0 -12 4 -14 15 -7 16 8 106 -3 136 -18 29 -15 425 5 436 23
4 7 -11 8 -48 3 -117 -16 -283 -16 -391 -1 -136 19 -148 19 -148 0z"/>
<path d="M70 90 c-18 -12 -2 -12 25 0 13 6 15 9 5 9 -8 0 -22 -4 -30 -9z"/>
</g>
</svg>
